<svg fill="none" height="16" viewBox="0 0 16 16" width="16" xmlns="http://www.w3.org/2000/svg"><path d="m2.46967 2.46967c.29289-.29289.76777-.29289 1.06066 0l4.46967 4.46967 4.4697-4.46967c.2929-.29289.7677-.29289 1.0606 0s.2929.76777 0 1.06066l-4.46964 4.46967 4.46964 4.4697c.2929.2929.2929.7677 0 1.0606s-.7677.2929-1.0606 0l-4.4697-4.46964-4.46967 4.46964c-.29289.2929-.76777.2929-1.06066 0s-.29289-.7677 0-1.0606l4.46967-4.4697-4.46967-4.46967c-.29289-.29289-.29289-.76777 0-1.06066z" fill="#fff" fill-opacity=".6"/></svg>