<svg width="16" height="16" viewBox="0 0 16 16" fill="none" xmlns="http://www.w3.org/2000/svg">
<path d="M3.49317 4.48008C4.45317 3.93341 5.77317 3.66675 6.9065 3.66675C10.2265 3.66675 12.3332 5.21341 12.3332 7.30675C12.3332 8.97341 10.8798 10.0001 8.9465 10.0001C7.3865 10.0001 6.2265 9.42675 6.2265 8.66675C6.2265 7.94675 6.95984 7.60008 7.99984 8.00008L8.2665 7.18675C6.65317 6.66675 5.31984 7.40008 5.31984 8.66675C5.31984 9.93341 6.89317 10.8401 8.99984 10.8401C11.5065 10.8401 13.3332 9.45341 13.3332 7.30675C13.3332 4.62675 10.7998 2.66675 6.9065 2.66675C5.65317 2.66675 4.23984 2.98675 3.07984 3.61341L3.49317 4.48008ZM12.5065 11.5201C11.5465 12.0667 10.2265 12.3334 9.09317 12.3334C5.77317 12.3334 3.6665 10.7867 3.6665 8.69341C3.6665 7.02675 5.11984 6.00008 7.05317 6.00008C8.61317 6.00008 9.77317 6.57341 9.77317 7.33341C9.77317 8.05341 9.03984 8.40008 7.99984 8.00008L7.73317 8.81341C9.3465 9.33341 10.6798 8.60008 10.6798 7.33341C10.6798 6.06675 9.1065 5.16008 6.99984 5.16008C4.49317 5.16008 2.6665 6.54675 2.6665 8.69341C2.6665 11.3734 5.19984 13.3334 9.09317 13.3334C10.3465 13.3334 11.7598 13.0134 12.9198 12.3867L12.5065 11.5201Z" fill="#6B57FF"/>
</svg>
