<?xml version="1.0"?>
<svg width="512" height="512" viewBox="0 0 48 48" fill="none" xmlns="http://www.w3.org/2000/svg">
<path d="M17.5 15C16.1193 15 15 16.1193 15 17.5V26.0001C15 27.3808 16.1193 28.5001 17.5 28.5001H25.5001L31.8259 32.8378C32.3236 33.1791 33.0001 32.8228 33.0001 32.2193V17.5C33.0001 16.1193 31.8808 15 30.5001 15H17.5ZM20 23C19.1716 23 18.5 22.3284 18.5 21.5C18.5 20.6716 19.1716 20 20 20C20.8284 20 21.5 20.6716 21.5 21.5C21.5 22.3284 20.8284 23 20 23ZM24 23C23.1716 23 22.5 22.3284 22.5 21.5C22.5 20.6716 23.1716 20 24 20C24.8284 20 25.5 20.6716 25.5 21.5C25.5 22.3284 24.8284 23 24 23ZM29.5 21.5C29.5 22.3284 28.8284 23 28 23C27.1716 23 26.5 22.3284 26.5 21.5C26.5 20.6716 27.1716 20 28 20C28.8284 20 29.5 20.6716 29.5 21.5Z" fill="white" fill-opacity="0.8"/>
</svg>
