<svg fill="none" height="16" viewBox="0 0 16 16" width="16" xmlns="http://www.w3.org/2000/svg"><g fill="#fff" fill-opacity=".95"><path d="m4.20305 7.00304-.56537.5653c.21684-2.21822 2.08717-3.95164 4.36235-3.95164.88318 0 1.70325.26041 2.39037.70842.347.22623.8117.12835 1.0379-.21862.2262-.34698.1283-.81165-.2186-1.03789-.9234-.60207-2.02684-.95191-3.20967-.95191-3.11571 0-5.66574 2.42196-5.87012 5.4859l-.59962-.59953c-.29292-.29287-.76779-.29283-1.060661.00008-.29287.29292-.292834.76779.000081 1.06066l1.8667 1.86641c.29288.29288.7677.29288 1.06059-.00001l1.86665-1.86645c.29291-.29288.29293-.76775.00006-1.06066-.29288-.29291-.76776-.29293-1.06066-.00006z"/><path d="m5.60958 11.6749c.68712.448 1.50719.7084 2.39037.7084 2.27515 0 4.14555-1.7334 4.36235-3.95167l-.5654.56531c-.2929.29288-.7677.29286-1.0606-.00005s-.2929-.76778 0-1.06066l1.8667-1.8665c.2929-.29286.7677-.29286 1.0606 0l1.8667 1.8665c.2929.29288.2929.76775 0 1.06066s-.7677.29293-1.0606.00005l-.5996-.59953c-.2044 3.06389-2.7544 5.48589-5.87015 5.48589-1.18283 0-2.28623-.3498-3.20963-.9519-.34698-.2262-.44486-.6909-.21863-1.0379.22624-.347.69091-.4449 1.03789-.2186z"/></g></svg>